<?xml version="1.0" encoding="UTF-8" standalone="no"?>
<!-- Created with Inkscape (http://www.inkscape.org/) -->

<svg
   width="3749.478"
   height="878.23376"
   viewBox="0 0 992.04936 232.36601"
   version="1.1"
   id="svg1"
   xml:space="preserve"
   xmlns:xlink="http://www.w3.org/1999/xlink"
   xmlns="http://www.w3.org/2000/svg"
   xmlns:svg="http://www.w3.org/2000/svg"><defs
     id="defs1"><linearGradient
       id="linearGradient23"><stop
         style="stop-color:#0088b2;stop-opacity:1;"
         offset="0"
         id="stop23" /><stop
         style="stop-color:#003c80;stop-opacity:1;"
         offset="1"
         id="stop24" /></linearGradient><linearGradient
       id="linearGradient21"><stop
         style="stop-color:#ffffff;stop-opacity:1;"
         offset="0"
         id="stop21" /><stop
         style="stop-color:#0160cc;stop-opacity:1"
         offset="1"
         id="stop22" /></linearGradient><linearGradient
       id="linearGradient19"><stop
         style="stop-color:#99e6ff;stop-opacity:1;"
         offset="0"
         id="stop19" /><stop
         style="stop-color:#005fcc;stop-opacity:1;"
         offset="1"
         id="stop20" /></linearGradient><pattern
       xlink:href="#Gingham"
       preserveAspectRatio="xMidYMid"
       id="pattern11"
       patternTransform="scale(0.5)" /><pattern
       patternUnits="userSpaceOnUse"
       width="100"
       height="100"
       id="Gingham"
       preserveAspectRatio="xMidYMid"
       patternTransform="scale(0.5,0.5)"
       style="fill:#0000ff">
      <rect
   style="fill-opacity:0.5;stroke:none"
   id="rect10"
   width="50"
   height="50"
   x="50"
   y="0" />
      <rect
   style="stroke:none"
   id="rect4"
   width="50"
   height="50"
   x="50"
   y="50" />
      <rect
   style="fill-opacity:0.5;stroke:none"
   id="rect5"
   width="50"
   height="50"
   x="0"
   y="50" />
    </pattern><rect
       x="1016.2048"
       y="265.09689"
       width="2203.6179"
       height="607.51373"
       id="rect3" /><rect
       x="916.79346"
       y="193.29982"
       width="2684.1062"
       height="723.49359"
       id="rect2" /><rect
       x="1921.9525"
       y="1485.6472"
       width="1524.3073"
       height="1402.8044"
       id="rect1" /><linearGradient
       id="linearGradient36"><stop
         style="stop-color:#003c80;stop-opacity:1;"
         offset="0"
         id="stop35" /><stop
         style="stop-color:#0088b2;stop-opacity:1;"
         offset="1"
         id="stop36" /></linearGradient><linearGradient
       id="linearGradient11"><stop
         style="stop-color:#005fcc;stop-opacity:1;"
         offset="0"
         id="stop11" /><stop
         style="stop-color:#99e6ff;stop-opacity:1;"
         offset="1"
         id="stop12" /></linearGradient><linearGradient
       xlink:href="#linearGradient11"
       id="linearGradient12"
       x1="-61.512787"
       y1="0.36531365"
       x2="61.512787"
       y2="0.36531365"
       gradientUnits="userSpaceOnUse" /><linearGradient
       xlink:href="#linearGradient36"
       id="linearGradient34"
       x1="28.898212"
       y1="47.013092"
       x2="-26.882509"
       y2="-49.318623"
       gradientUnits="userSpaceOnUse" /><linearGradient
       xlink:href="#linearGradient19"
       id="linearGradient20"
       x1="515.90979"
       y1="81.459915"
       x2="1090.1086"
       y2="81.459915"
       gradientUnits="userSpaceOnUse" /><linearGradient
       xlink:href="#linearGradient21"
       id="linearGradient22"
       x1="767.71051"
       y1="-522.93933"
       x2="873.11938"
       y2="-341.89374"
       gradientUnits="userSpaceOnUse" /><linearGradient
       xlink:href="#linearGradient23"
       id="linearGradient24"
       x1="767.71051"
       y1="-522.93933"
       x2="873.11938"
       y2="-341.89374"
       gradientUnits="userSpaceOnUse" /><rect
       x="1921.9525"
       y="1485.6472"
       width="1524.3073"
       height="1402.8044"
       id="rect1-5" /><rect
       x="916.79346"
       y="193.29982"
       width="2684.1062"
       height="723.49359"
       id="rect2-4" /><rect
       x="1016.2048"
       y="265.09689"
       width="2203.6179"
       height="607.51373"
       id="rect3-3" /></defs><g
     id="layer1"
     transform="translate(-35.550169,-288.36037)"><g
       id="layer1-4"
       transform="translate(-116.36559,73.061456)"><path
         id="path1"
         style="fill:none;stroke:url(#linearGradient12);stroke-width:6.43007"
         transform="matrix(1.6481789,0,0,1.6436504,253.29984,330.88147)"
         d="M 57.719557,34.339483 -0.56271574,67.339001 -58.282273,33.364831 -57.719557,-33.608856 0.56271574,-66.608374 58.282273,-32.634204 Z" /><path
         id="path1-1"
         style="fill:url(#linearGradient34);stroke-width:10.1494"
         transform="matrix(0.64956101,0,0,0.59025349,254.45046,331.60996)"
         d="M 57.719557,34.339483 -0.56271574,67.339001 -58.282273,33.364831 -57.719557,-33.608856 0.56271574,-66.608374 58.282273,-32.634204 Z" /><g
         id="g6-7"
         transform="matrix(0.81,0,0,0.81,-147.78996,325.35325)"><path
           style="fill:#ffffff;fill-opacity:1;stroke:none;stroke-width:7.9375;stroke-dasharray:none;stroke-opacity:1"
           d="m 490.76233,23.248419 h 12.19097 l -0.25831,-55.021257 -12.19097,-0.258316 -9.29936,14.982314 9.81599,-0.258316 z"
           id="path3-9" /><path
           id="path1-1-6-5"
           style="fill:none;stroke:#ffffff;stroke-width:44.8406"
           transform="matrix(0.19649275,0,0,0.18144088,496.71064,31.284913)"
           d="M 57.719557,34.339483 -0.56271574,67.339001 -58.282273,33.364831 -57.719557,-33.608856 0.56271574,-66.608374 58.282273,-32.634204 Z" /><path
           id="rect3-4"
           style="fill:#ffffff;stroke-width:7.9375"
           d="m 481.69617,-7.4284821 h 13.43242 v 5.4246312 h -13.43242 z" /></g><path
         style="fill:#33ceff;fill-opacity:1;stroke:none;stroke-width:8.46667;stroke-dasharray:none;stroke-opacity:1"
         d="m 216.43993,306.11836 31.51452,-17.04884 -29.09835,-32.07279 -41.77148,22.16815 -0.0189,104.13763 23.03185,13.08601 -0.32426,-108.10171 z"
         id="path6-3-8" /><path
         style="fill:#99e6ff;fill-opacity:1;stroke:none;stroke-width:8.46667;stroke-dasharray:none;stroke-opacity:1"
         d="m 177.03247,383.47093 0.0419,-50.57554 23.02369,63.49335 z"
         id="path6" /><path
         style="fill:#99e6ff;fill-opacity:1;stroke:none;stroke-width:8.46667;stroke-dasharray:none;stroke-opacity:1"
         d="m 177.08318,279.15897 22.68565,9.13018 -22.69442,44.64322 z"
         id="path7" /><path
         style="fill:#00c2ff;fill-opacity:1;stroke:none;stroke-width:8.46667;stroke-dasharray:none;stroke-opacity:1"
         d="m 177.07771,332.9079 22.69885,-44.64802 0.32075,108.12718 z"
         id="path6-0" /><path
         style="fill:#00c2ff;fill-opacity:1;stroke:none;stroke-width:8.46667;stroke-dasharray:none;stroke-opacity:1"
         d="m 199.74072,288.26858 48.21338,0.80118 -31.7502,17.30216 z"
         id="path8" /><path
         style="fill:#99e6ff;fill-opacity:1;stroke:none;stroke-width:8.46667;stroke-dasharray:none;stroke-opacity:1"
         d="m 218.85528,256.99232 -19.0905,31.29656 48.1875,0.77828 z"
         id="path9" /><path
         style="fill:#00c2ff;fill-opacity:1;stroke:none;stroke-width:8.46667;stroke-dasharray:none;stroke-opacity:1"
         d="m 177.08408,279.16058 41.77213,-22.16506 -19.09102,31.29651 z"
         id="path10" /><g
         id="g10"
         transform="translate(116.10796,197.48077)"><path
           style="fill:#005fcc;fill-opacity:1;stroke:none;stroke-width:8.46667;stroke-dasharray:none;stroke-opacity:1"
           d="m 175.11634,160.15549 -31.51452,17.04883 29.09835,32.07279 41.77148,-22.16814 0.0189,-104.137631 -23.03185,-13.08601 0.32425,108.101711 z"
           id="path6-3-8-9" /><path
           style="fill:#3392ff;fill-opacity:1;stroke:none;stroke-width:8.46667;stroke-dasharray:none;stroke-opacity:1"
           d="M 214.5238,82.802919 214.4819,133.37846 191.45821,69.885109 Z"
           id="path6-8" /><path
           style="fill:#3392ff;fill-opacity:1;stroke:none;stroke-width:8.46667;stroke-dasharray:none;stroke-opacity:1"
           d="m 214.47309,187.11488 -22.68566,-9.13018 22.69443,-44.64322 z"
           id="path7-4" /><path
           style="fill:#005fcc;fill-opacity:1;stroke:none;stroke-width:8.46667;stroke-dasharray:none;stroke-opacity:1"
           d="M 214.47857,133.36595 191.7797,178.01397 191.45895,69.886789 Z"
           id="path6-0-0" /><path
           style="fill:#005fcc;fill-opacity:1;stroke:none;stroke-width:8.46667;stroke-dasharray:none;stroke-opacity:1"
           d="m 191.81555,178.00526 -48.21338,-0.80118 31.51869,-17.0541 z"
           id="path8-7" /><path
           style="fill:#3392ff;fill-opacity:1;stroke:none;stroke-width:8.46667;stroke-dasharray:none;stroke-opacity:1"
           d="m 172.70099,209.28153 19.0905,-31.29657 -48.1875,-0.77827 z"
           id="path9-6" /><path
           style="fill:#005fcc;fill-opacity:1;stroke:none;stroke-width:8.46667;stroke-dasharray:none;stroke-opacity:1"
           d="m 214.47219,187.11326 -41.77213,22.16506 19.09102,-31.29651 z"
           id="path10-0" /></g><path
         id="path1-7"
         style="fill:none;stroke:#ffffff;stroke-width:6.43007"
         transform="matrix(1.6481789,0,0,1.6436504,255.91359,61.613316)"
         d="M 57.719557,34.339483 -0.56271574,67.339001 -58.282273,33.364831 -57.719557,-33.608856 0.56271574,-66.608374 58.282273,-32.634204 Z" /><path
         id="path1-1-5"
         style="fill:none;stroke:#ffffff;stroke-width:10.1494"
         transform="matrix(0.61708296,0,0,0.56074082,257.06421,62.352586)"
         d="M 57.719557,34.339483 -0.56271574,67.339001 -58.282273,33.364831 -57.719557,-33.608856 0.56271574,-66.608374 58.282273,-32.634204 Z" /><g
         id="g6-7-4"
         transform="matrix(0.731025,0,0,0.731025,-105.94847,56.723566)"><path
           style="fill:#ffffff;fill-opacity:1;stroke:none;stroke-width:7.9375;stroke-dasharray:none;stroke-opacity:1"
           d="m 490.76233,23.248419 h 12.19097 l -0.25831,-55.021257 -12.19097,-0.258316 -9.29936,14.982314 9.81599,-0.258316 z"
           id="path3-9-1" /><path
           id="path1-1-6-5-2"
           style="fill:none;stroke:#ffffff;stroke-width:44.8406"
           transform="matrix(0.19649275,0,0,0.18144088,496.71064,31.284913)"
           d="M 57.719557,34.339483 -0.56271574,67.339001 -58.282273,33.364831 -57.719557,-33.608856 0.56271574,-66.608374 58.282273,-32.634204 Z" /><path
           id="rect3-4-0"
           style="fill:#ffffff;stroke-width:7.9375"
           d="m 481.69617,-7.4284821 h 13.43242 v 5.4246312 h -13.43242 z" /></g><path
         style="fill:#ffffff;fill-opacity:1;stroke:none;stroke-width:8.46667;stroke-dasharray:none;stroke-opacity:1"
         d="m 219.05368,36.850206 31.51452,-17.04884 -29.09835,-32.07279 -41.77148,22.1681401 -0.0189,104.1376439 23.03184,13.08601 -0.32425,-108.101724 z"
         id="path6-3-8-01" /><g
         id="g10-7"
         transform="translate(-136.89708,252.60994)"><path
           style="fill:#ffffff;fill-opacity:1;stroke:none;stroke-width:8.46667;stroke-dasharray:none;stroke-opacity:1"
           d="m 430.73514,-164.24183 -31.51452,17.04883 29.09835,32.07279 41.77148,-22.16814 0.0189,-104.13763 -23.03185,-13.08602 0.32425,108.10172 z"
           id="path6-3-8-9-7" /><g
           transform="matrix(0.26458333,0,0,0.26458333,253.26267,-325.6714)"
           id="text1"
           style="font-size:72px;font-family:"Tomorrow", "Trebuchet MS", sans-serif;-inkscape-font-specification:Tomorrow;white-space:pre;shape-inside:url(#rect1);display:inline;stroke:#000000;stroke-width:39.9987" /><g
           transform="matrix(0.26458333,0,0,0.26458333,253.26267,-325.6714)"
           id="text2"
           style="font-size:72px;font-family:"Tomorrow", "Trebuchet MS", sans-serif;-inkscape-font-specification:Tomorrow;white-space:pre;shape-inside:url(#rect2);display:inline;fill:#ffffff;stroke:#000000;stroke-width:39.9987" /><g
           transform="matrix(0.26458333,0,0,0.26458333,253.26267,-325.6714)"
           id="text3"
           style="font-size:682.667px;font-family:"Tomorrow", "Trebuchet MS", sans-serif;-inkscape-font-specification:Tomorrow;white-space:pre;shape-inside:url(#rect3);display:inline;fill:#ffffff;stroke:#000000;stroke-width:39.9987" /><g
           aria-label="norinori"
           id="text4"
           style="font-size:158.75px;line-height:0;font-family:"Tomorrow", "Trebuchet MS", sans-serif;-inkscape-font-specification:Tomorrow;fill:#ffffff;stroke-width:10.5831"><path
             d="m 516.16699,-127.90327 v -83.02625 h 13.97 v 14.9225 l 14.44625,-14.9225 h 30.63875 l 16.51,16.66875 v 66.3575 h -13.97 v -62.865 l -8.41375,-9.04875 h -21.11375 l -18.0975,18.415 v 53.49875 z"
             style="text-align:center;text-anchor:middle"
             id="path109" /><path
             d="m 631.73703,-127.90327 -16.66875,-16.66875 v -49.68875 l 16.66875,-16.66875 h 39.37 l 16.66875,16.66875 v 49.68875 l -16.66875,16.66875 z m 6.0325,-11.1125 h 27.305 l 8.73125,-8.73125 -0.15875,-43.33875 -8.5725,-8.73125 h -27.305 l -8.73125,8.73125 v 43.33875 z"
             style="text-align:center;text-anchor:middle"
             id="path111" /><path
             d="m 711.90571,-127.90327 v -83.02625 h 13.97 v 14.9225 l 14.44625,-14.9225 h 21.2725 v 13.97 h -20.6375 l -15.08125,15.5575 v 53.49875 z"
             style="text-align:center;text-anchor:middle"
             id="path113" /><path
             d="m 776.35824,-219.97827 v -18.7325 h 13.97 v 18.7325 z m 0,92.075 v -83.02625 h 13.97 v 83.02625 z"
             style="text-align:center;text-anchor:middle"
             id="path115" /><path
             d="m 816.2044,-127.90327 v -83.02625 h 13.97 v 14.9225 l 14.44625,-14.9225 h 30.63875 l 16.51,16.66875 v 66.3575 h -13.97 v -62.865 l -8.41375,-9.04875 H 848.2719 l -18.0975,18.415 v 53.49875 z"
             style="text-align:center;text-anchor:middle"
             id="path117" /><path
             d="m 931.77443,-127.90327 -16.66875,-16.66875 v -49.68875 l 16.66875,-16.66875 h 39.37 l 16.66875,16.66875 v 49.68875 l -16.66875,16.66875 z m 6.0325,-11.1125 h 27.305 l 8.73125,-8.73125 -0.15875,-43.33875 -8.5725,-8.73125 h -27.305 l -8.73125,8.73125 v 43.33875 z"
             style="text-align:center;text-anchor:middle"
             id="path119" /><path
             d="m 1011.9431,-127.90327 v -83.02625 h 13.97 v 14.9225 l 14.4463,-14.9225 h 21.2725 v 13.97 h -20.6375 l -15.0813,15.5575 v 53.49875 z"
             style="text-align:center;text-anchor:middle"
             id="path121" /><path
             d="m 1076.3956,-219.97827 v -18.7325 h 13.97 v 18.7325 z m 0,92.075 v -83.02625 h 13.97 v 83.02625 z"
             style="text-align:center;text-anchor:middle"
             id="path123" /></g><g
           aria-label="norinori"
           id="text4-1"
           style="font-size:158.75px;line-height:0;font-family:"Tomorrow", "Trebuchet MS", sans-serif;-inkscape-font-specification:Tomorrow;fill:url(#linearGradient20);stroke-width:10.5831"><path
             d="M 515.90997,136.86366 V 53.837413 h 13.97 v 14.9225 l 14.44625,-14.9225 h 30.63875 l 16.51,16.66875 v 66.357497 h -13.97 V 73.998663 l -8.41375,-9.04875 h -21.11375 l -18.0975,18.415 v 53.498747 z"
             style="text-align:center;text-anchor:middle"
             id="path126" /><path
             d="M 631.48001,136.86366 614.81126,120.19491 V 70.506163 l 16.66875,-16.66875 h 39.37 l 16.66875,16.66875 v 49.688747 l -16.66875,16.66875 z m 6.0325,-11.1125 h 27.305 l 8.73125,-8.73125 -0.15875,-43.338747 -8.5725,-8.73125 h -27.305 l -8.73125,8.73125 v 43.338747 z"
             style="text-align:center;text-anchor:middle"
             id="path128" /><path
             d="M 711.64869,136.86366 V 53.837413 h 13.97 v 14.9225 l 14.44625,-14.9225 h 21.2725 v 13.97 h -20.6375 l -15.08125,15.5575 v 53.498747 z"
             style="text-align:center;text-anchor:middle"
             id="path130" /><path
             d="m 776.10122,44.788663 v -18.7325 h 13.97 v 18.7325 z m 0,92.074997 V 53.837413 h 13.97 v 83.026247 z"
             style="text-align:center;text-anchor:middle"
             id="path132" /><path
             d="M 815.94738,136.86366 V 53.837413 h 13.97 v 14.9225 l 14.44625,-14.9225 h 30.63875 l 16.51,16.66875 v 66.357497 h -13.97 V 73.998663 l -8.41375,-9.04875 h -21.11375 l -18.0975,18.415 v 53.498747 z"
             style="text-align:center;text-anchor:middle"
             id="path134" /><path
             d="M 931.51741,136.86366 914.84866,120.19491 V 70.506163 l 16.66875,-16.66875 h 39.37 l 16.66875,16.66875 v 49.688747 l -16.66875,16.66875 z m 6.0325,-11.1125 h 27.305 l 8.73125,-8.73125 -0.15875,-43.338747 -8.5725,-8.73125 h -27.305 l -8.73125,8.73125 v 43.338747 z"
             style="text-align:center;text-anchor:middle"
             id="path136" /><path
             d="M 1011.6861,136.86366 V 53.837413 h 13.97 v 14.9225 l 14.4462,-14.9225 h 21.2725 v 13.97 h -20.6375 l -15.0812,15.5575 v 53.498747 z"
             style="text-align:center;text-anchor:middle"
             id="path138" /><path
             d="m 1076.1386,44.788663 v -18.7325 h 13.97 v 18.7325 z m 0,92.074997 V 53.837413 h 13.97 v 83.026247 z"
             style="text-align:center;text-anchor:middle"
             id="path140" /></g><path
           id="path4"
           style="fill:none;stroke:#ffffff;stroke-width:21.2045"
           transform="matrix(0.63188608,0.01061499,-0.01023401,0.64168782,677.11385,78.199698)"
           d="m 932.74608,-363.66402 -108.67798,65.4904 -111.05535,-61.37269 -2.37736,-126.86309 108.67798,-65.49041 111.05535,61.37269 z" /><g
           aria-label="1"
           transform="scale(0.98709834,1.0130703)"
           id="text5"
           style="font-size:108.034px;line-height:0;font-family:"Tomorrow", "Trebuchet MS", sans-serif;-inkscape-font-specification:Tomorrow;fill:none;stroke:#ffffff;stroke-width:13.5042"><path
             d="m 1200.7906,-147.10349 v -9.07485 h 12.2079 v -61.47134 h -10.9115 v -9.07486 h 20.7426 v 70.5462 h 12.2078 v 9.07485 z"
             style="fill:#ffffff;stroke:none"
             id="path144" /></g><path
           id="path4-1"
           style="fill:url(#linearGradient24);stroke:url(#linearGradient22);stroke-width:21.2045"
           transform="matrix(0.63188608,0.01061499,-0.01023401,0.64168782,681.04112,345.95138)"
           d="m 932.74608,-363.66402 -108.67798,65.4904 -111.05535,-61.37269 -2.37736,-126.86309 108.67798,-65.49041 111.05535,61.37269 z" /><g
           aria-label="1"
           transform="scale(0.98709833,1.0130703)"
           id="text5-4"
           style="font-size:108.034px;line-height:0;font-family:"Tomorrow", "Trebuchet MS", sans-serif;-inkscape-font-specification:Tomorrow;fill:#ffffff;stroke:#ffffff;stroke-width:13.5042"><path
             d="m 1205.5094,119.35735 v -9.07485 h 12.2078 V 48.811153 h -10.9114 v -9.074855 h 20.7425 V 110.2825 h 12.2079 v 9.07485 z"
             style="stroke:none"
             id="path148" /></g></g><path
         id="path1-7-2"
         style="fill:none;stroke:#000000;stroke-width:6.43007"
         transform="matrix(1.6481789,0,0,1.6436504,251.25706,607.947)"
         d="M 57.719557,34.339483 -0.56271574,67.339001 -58.282273,33.364831 -57.719557,-33.608856 0.56271574,-66.608374 58.282273,-32.634204 Z" /><path
         id="path1-1-5-7"
         style="fill:none;stroke:#000000;stroke-width:10.1494"
         transform="matrix(0.61708296,0,0,0.56074082,252.40768,608.68627)"
         d="M 57.719557,34.339483 -0.56271574,67.339001 -58.282273,33.364831 -57.719557,-33.608856 0.56271574,-66.608374 58.282273,-32.634204 Z" /><g
         id="g6-7-4-7"
         transform="matrix(0.731025,0,0,0.731025,-110.605,603.05725)"><path
           style="fill:#000000;fill-opacity:1;stroke:none;stroke-width:7.9375;stroke-dasharray:none;stroke-opacity:1"
           d="m 490.76233,23.248419 h 12.19097 l -0.25831,-55.021257 -12.19097,-0.258316 -9.29936,14.982314 9.81599,-0.258316 z"
           id="path3-9-1-9" /><path
           id="path1-1-6-5-2-3"
           style="fill:none;stroke:#000000;stroke-width:44.8406"
           transform="matrix(0.19649275,0,0,0.18144088,496.71064,31.284913)"
           d="M 57.719557,34.339483 -0.56271574,67.339001 -58.282273,33.364831 -57.719557,-33.608856 0.56271574,-66.608374 58.282273,-32.634204 Z" /><path
           id="rect3-4-0-1"
           style="stroke-width:7.9375"
           d="m 481.69617,-7.4284821 h 13.43242 v 5.4246312 h -13.43242 z" /></g><path
         style="fill:#000000;fill-opacity:1;stroke:none;stroke-width:8.46667;stroke-dasharray:none;stroke-opacity:1"
         d="m 214.39715,583.18389 31.51452,-17.04884 -29.09835,-32.07279 -41.77148,22.16814 -0.0189,104.13765 23.03184,13.08601 -0.32425,-108.10173 z"
         id="path6-3-8-01-9" /><g
         id="g10-7-8"
         transform="translate(42.367208,1040.7272)"><path
           style="fill:#000000;fill-opacity:1;stroke:none;stroke-width:8.46667;stroke-dasharray:none;stroke-opacity:1"
           d="m 246.81432,-406.02538 -31.51452,17.04883 29.09835,32.07279 41.77148,-22.16814 0.0189,-104.13763 -23.03185,-13.08602 0.32425,108.10172 z"
           id="path6-3-8-9-7-6" /><g
           transform="matrix(0.26458333,0,0,0.26458333,253.26267,-325.6714)"
           id="text1-5"
           style="font-size:72px;font-family:"Tomorrow", "Trebuchet MS", sans-serif;-inkscape-font-specification:Tomorrow;white-space:pre;shape-inside:url(#rect1-5);display:inline;stroke:#000000;stroke-width:39.9987" /><g
           transform="matrix(0.26458333,0,0,0.26458333,253.26267,-325.6714)"
           id="text2-0"
           style="font-size:72px;font-family:"Tomorrow", "Trebuchet MS", sans-serif;-inkscape-font-specification:Tomorrow;white-space:pre;shape-inside:url(#rect2-4);display:inline;fill:#ffffff;stroke:#000000;stroke-width:39.9987" /><g
           transform="matrix(0.26458333,0,0,0.26458333,253.26267,-325.6714)"
           id="text3-2"
           style="font-size:682.667px;font-family:"Tomorrow", "Trebuchet MS", sans-serif;-inkscape-font-specification:Tomorrow;white-space:pre;shape-inside:url(#rect3-3);display:inline;fill:#ffffff;stroke:#000000;stroke-width:39.9987" /><g
           aria-label="norinori"
           id="text4-8"
           style="font-size:158.75px;line-height:0;font-family:"Tomorrow", "Trebuchet MS", sans-serif;-inkscape-font-specification:Tomorrow;stroke-width:10.5831"><path
             d="m 332.24615,-369.68683 v -83.02625 h 13.97 v 14.9225 l 14.44625,-14.9225 h 30.63875 l 16.51,16.66875 v 66.3575 h -13.97 v -62.865 l -8.41375,-9.04875 h -21.11375 l -18.0975,18.415 v 53.49875 z"
             style="text-align:center;text-anchor:middle"
             id="path158" /><path
             d="m 447.81619,-369.68683 -16.66875,-16.66875 v -49.68875 l 16.66875,-16.66875 h 39.37 l 16.66875,16.66875 v 49.68875 l -16.66875,16.66875 z m 6.0325,-11.1125 h 27.305 l 8.73125,-8.73125 -0.15875,-43.33875 -8.5725,-8.73125 h -27.305 l -8.73125,8.73125 v 43.33875 z"
             style="text-align:center;text-anchor:middle"
             id="path160" /><path
             d="m 527.98487,-369.68683 v -83.02625 h 13.97 v 14.9225 l 14.44625,-14.9225 h 21.2725 v 13.97 h -20.6375 l -15.08125,15.5575 v 53.49875 z"
             style="text-align:center;text-anchor:middle"
             id="path162" /><path
             d="m 592.4374,-461.76183 v -18.7325 h 13.97 v 18.7325 z m 0,92.075 v -83.02625 h 13.97 v 83.02625 z"
             style="text-align:center;text-anchor:middle"
             id="path164" /><path
             d="m 632.28356,-369.68683 v -83.02625 h 13.97 v 14.9225 l 14.44625,-14.9225 h 30.63875 l 16.51,16.66875 v 66.3575 h -13.97 v -62.865 l -8.41375,-9.04875 h -21.11375 l -18.0975,18.415 v 53.49875 z"
             style="text-align:center;text-anchor:middle"
             id="path166" /><path
             d="m 747.85359,-369.68683 -16.66875,-16.66875 v -49.68875 l 16.66875,-16.66875 h 39.37 l 16.66875,16.66875 v 49.68875 l -16.66875,16.66875 z m 6.0325,-11.1125 h 27.305 l 8.73125,-8.73125 -0.15875,-43.33875 -8.5725,-8.73125 h -27.305 l -8.73125,8.73125 v 43.33875 z"
             style="text-align:center;text-anchor:middle"
             id="path168" /><path
             d="m 828.02227,-369.68683 v -83.02625 h 13.97 v 14.9225 l 14.44625,-14.9225 h 21.2725 v 13.97 h -20.6375 l -15.08125,15.5575 v 53.49875 z"
             style="text-align:center;text-anchor:middle"
             id="path170" /><path
             d="m 892.47479,-461.76183 v -18.7325 h 13.97 v 18.7325 z m 0,92.075 v -83.02625 h 13.97 v 83.02625 z"
             style="text-align:center;text-anchor:middle"
             id="path172" /></g><path
           id="path4-4"
           style="fill:none;stroke:#000000;stroke-width:21.2045"
           transform="matrix(0.63188608,0.01061499,-0.01023401,0.64168782,493.19303,-163.58385)"
           d="m 932.74608,-363.66402 -108.67798,65.4904 -111.05535,-61.37269 -2.37736,-126.86309 108.67798,-65.49041 111.05535,61.37269 z" /><g
           aria-label="1"
           transform="scale(0.98709833,1.0130703)"
           id="text5-8"
           style="font-size:108.034px;line-height:0;font-family:"Tomorrow", "Trebuchet MS", sans-serif;-inkscape-font-specification:Tomorrow;fill:none;stroke:#ffffff;stroke-width:13.5042"><path
             d="m 1014.4659,-385.76764 v -9.07485 h 12.2079 v -61.47135 h -10.9115 v -9.07485 h 20.7426 v 70.5462 h 12.2078 v 9.07485 z"
             style="fill:#000000;stroke:none"
             id="path176" /></g></g></g></g></svg>
